<mxfile host="app.diagrams.net" modified="2020-12-12T16:46:54.682Z" agent="5.0 (Macintosh)" etag="wRqbKzC0sHIWTQ8I9du5" compressed="false" version="14.0.1" type="device">
  <diagram id="ivhsDYYPdczsc3vVxfjd" name="Page-1">
    <mxGraphModel dx="1815" dy="755" grid="1" gridSize="10" guides="1" tooltips="1" connect="1" arrows="1" fold="1" page="1" pageScale="1" pageWidth="900" pageHeight="1600" math="0" shadow="0">
      <root>
        <mxCell id="0" />
        <mxCell id="1" parent="0" />
        <mxCell id="NumlEiOtyFfbM9nNR2kI-29" value="" style="verticalLabelPosition=bottom;html=1;verticalAlign=top;align=center;strokeColor=#666666;fillColor=#f5f5f5;shape=mxgraph.azure.github_code;pointerEvents=1;rounded=1;shadow=0;glass=0;sketch=0;strokeWidth=13;fontColor=#333333;" vertex="1" parent="1">
          <mxGeometry x="-860" y="30" width="200" height="200" as="geometry" />
        </mxCell>
      </root>
    </mxGraphModel>
  </diagram>
</mxfile>
